<?xml version="1.0" standalone="no"?>
<!DOCTYPE svg PUBLIC "-//W3C//DTD SVG 20010904//EN"
 "http://www.w3.org/TR/2001/REC-SVG-20010904/DTD/svg10.dtd">
<svg version="1.0" xmlns="http://www.w3.org/2000/svg"
 width="3968.000000pt" height="2976.000000pt" viewBox="0 0 3968.000000 2976.000000"
 preserveAspectRatio="xMidYMid meet">

<g transform="translate(0.000000,2976.000000) scale(0.100000,-0.100000)"
fill="#000000" stroke="none">
<path d="M0 19980 c0 -5379 3 -9780 8 -9780 4 0 52 7 107 15 67 10 187 15 366
15 l267 0 138 45 c77 25 168 48 204 51 38 4 150 -3 273 -15 302 -32 352 -24
528 80 l117 68 378 51 378 51 336 -16 337 -16 283 61 c355 76 402 81 670 68
304 -14 452 6 515 70 31 31 89 142 100 190 3 17 10 32 13 32 4 0 277 -14 607
-30 439 -22 607 -28 629 -20 17 6 58 29 92 51 123 80 191 94 544 109 311 13
324 16 850 189 218 71 417 129 524 151 70 14 116 9 258 -31 l106 -30 684 31
683 30 85 40 85 39 248 11 248 12 157 49 c86 28 207 64 267 82 l110 31 490 6
c479 6 493 7 629 33 119 23 166 27 313 27 l174 0 369 115 c335 104 404 122
760 196 l391 81 52 -17 c29 -9 113 -45 187 -80 74 -34 151 -68 170 -74 19 -5
163 -24 320 -41 318 -34 355 -42 700 -155 153 -50 253 -78 313 -85 l88 -11
255 -185 c208 -150 265 -187 312 -200 37 -10 133 -18 277 -24 234 -9 316 -21
456 -69 180 -61 325 -128 664 -307 192 -101 357 -178 471 -217 82 -29 132 -38
264 -52 195 -20 249 -37 610 -192 135 -58 270 -114 301 -124 31 -10 137 -29
236 -43 258 -37 306 -54 457 -160 43 -31 83 -53 87 -50 53 33 40 564 -21 845
-10 47 -26 103 -34 124 -9 21 -13 42 -9 46 24 22 265 42 558 46 351 5 312 -2
590 105 329 127 436 151 850 188 243 22 257 23 375 46 91 17 691 54 881 54
l137 0 40 48 c38 45 45 49 173 89 74 23 166 47 204 54 43 7 273 14 595 19 608
8 633 11 859 96 231 87 220 85 561 94 277 7 321 11 474 39 200 36 461 76 601
90 247 26 357 32 775 41 456 9 595 18 735 47 72 15 84 20 122 60 l41 44 320
29 c308 29 329 32 534 84 384 98 459 99 680 8 80 -33 167 -64 194 -71 27 -6
159 -15 294 -20 224 -8 263 -13 460 -50 330 -63 480 -104 798 -217 505 -180
563 -192 980 -199 163 -3 338 -10 387 -16 132 -16 349 -82 710 -217 668 -250
803 -277 1162 -236 196 22 264 16 598 -51 789 -158 1528 -340 2445 -600 319
-91 1016 -297 1056 -312 12 -4 14 1364 14 9706 l0 9711 -19840 0 -19840 0 0
-9780z"/>
</g>
</svg>
